<svg 
 xmlns="http://www.w3.org/2000/svg"
 xmlns:xlink="http://www.w3.org/1999/xlink"
 width="23px" height="23px">
<path fill-rule="evenodd"  fill="rgb(0, 0, 0)"
 d="M9.551,0.500 C8.332,0.500 7.160,0.742 6.035,1.226 C4.925,1.695 3.973,2.328 3.176,3.125 C2.379,3.938 1.738,4.898 1.254,6.008 C0.785,7.117 0.551,8.281 0.551,9.500 C0.551,10.719 0.785,11.883 1.254,12.992 C1.738,14.102 2.379,15.063 3.176,15.875 C3.973,16.672 4.925,17.313 6.035,17.797 C7.160,18.266 8.332,18.500 9.551,18.500 C10.598,18.500 11.598,18.328 12.551,17.984 C13.504,17.641 14.371,17.156 15.152,16.531 L20.824,22.203 C21.027,22.406 21.269,22.508 21.551,22.508 C21.832,22.508 22.066,22.406 22.254,22.203 C22.441,22.016 22.535,21.781 22.535,21.500 C22.535,21.219 22.441,20.984 22.254,20.797 L16.582,15.125 C17.207,14.344 17.691,13.469 18.035,12.500 C18.379,11.547 18.551,10.547 18.551,9.500 C18.551,8.281 18.309,7.117 17.824,6.008 C17.355,4.898 16.715,3.938 15.902,3.125 C15.105,2.328 14.152,1.695 13.043,1.226 C11.933,0.742 10.770,0.500 9.551,0.500 L9.551,0.500 ZM9.551,2.492 C10.488,2.492 11.394,2.680 12.270,3.055 C13.129,3.430 13.871,3.930 14.496,4.555 C15.121,5.180 15.621,5.922 15.996,6.781 C16.355,7.640 16.535,8.547 16.535,9.500 C16.535,10.453 16.355,11.359 15.996,12.219 C15.621,13.078 15.121,13.821 14.496,14.445 C13.871,15.070 13.129,15.570 12.270,15.946 C11.394,16.320 10.488,16.508 9.551,16.508 C8.598,16.508 7.691,16.320 6.832,15.946 C5.957,15.570 5.207,15.070 4.582,14.445 C3.957,13.821 3.465,13.078 3.106,12.219 C2.730,11.359 2.543,10.453 2.543,9.500 C2.543,8.547 2.730,7.640 3.106,6.781 C3.465,5.922 3.957,5.180 4.582,4.555 C5.207,3.930 5.957,3.430 6.832,3.055 C7.691,2.680 8.598,2.492 9.551,2.492 L9.551,2.492 Z"/>
</svg>